<svg width="79" height="31" viewBox="0 0 79 31" fill="none" xmlns="http://www.w3.org/2000/svg">
<g clip-path="url(#clip0_832_429)">
<mask id="mask0_832_429" style="mask-type:luminance" maskUnits="userSpaceOnUse" x="0" y="0" width="79" height="31">
<path d="M78.1064 0.5H0.106445V30.5H78.1064V0.5Z" fill="white"/>
</mask>
<g mask="url(#mask0_832_429)">
<path d="M18.6211 0.5C15.575 0.5 12.6537 1.71005 10.4998 3.86396L3.47041 10.8934C1.3165 13.0473 0.106445 15.9686 0.106445 19.0147C0.106445 25.3579 5.24859 30.5 11.5917 30.5C14.6378 30.5 17.5591 29.2899 19.713 27.136L24.5753 22.2737C24.5753 22.2736 24.5754 22.2738 24.5753 22.2737L38.7424 8.1066C39.7711 7.07791 41.1663 6.5 42.6211 6.5C45.0567 6.5 47.1216 8.08741 47.8375 10.2841L52.3086 5.81296C50.2689 2.61834 46.6924 0.5 42.6211 0.5C39.575 0.5 36.6537 1.71005 34.4998 3.86396L15.4704 22.8934C14.4417 23.9221 13.0465 24.5 11.5917 24.5C8.56229 24.5 6.10645 22.0442 6.10645 19.0147C6.10645 17.5599 6.68436 16.1647 7.71305 15.136L14.7424 8.1066C15.7711 7.07791 17.1663 6.5 18.6211 6.5C21.0568 6.5 23.1216 8.08748 23.8375 10.2842L28.3087 5.81307C26.269 2.6184 22.6925 0.5 18.6211 0.5Z" fill="#FFFEF6"/>
<path d="M39.4701 22.8934C38.4414 23.9221 37.0462 24.5 35.5914 24.5C33.1561 24.5 31.0914 22.913 30.3753 20.7167L25.9043 25.1877C27.9441 28.3819 31.5204 30.5 35.5914 30.5C38.6375 30.5 41.5588 29.2899 43.7127 27.136L62.7421 8.1066C63.7708 7.07791 65.166 6.5 66.6208 6.5C69.6503 6.5 72.1061 8.95584 72.1061 11.9853C72.1061 13.4401 71.5282 14.8353 70.4995 15.864L63.4701 22.8934C62.4414 23.9221 61.0462 24.5 59.5914 24.5C57.1559 24.5 55.0911 22.9127 54.3751 20.7162L49.9041 25.1873C51.9438 28.3818 55.5202 30.5 59.5914 30.5C62.6375 30.5 65.5588 29.2899 67.7127 27.136L74.7421 20.1066C76.896 17.9527 78.1061 15.0314 78.1061 11.9853C78.1061 5.64214 72.964 0.5 66.6208 0.5C63.5747 0.5 60.6534 1.71005 58.4995 3.86396L39.4701 22.8934Z" fill="#FFFEF6"/>
</g>
</g>
<defs>
<clipPath id="clip0_832_429">
<rect width="79" height="31" fill="white"/>
</clipPath>
</defs>
</svg>
